<svg xmlns="http://www.w3.org/2000/svg" viewBox="0 0 512 512">
    <defs>
        <linearGradient id="grad1" x1="0%" y1="0%" x2="100%" y2="100%">
        <stop offset="0%" style="stop-color:#fdba74;stop-opacity:1" />
        <stop offset="100%" style="stop-color:#f97316;stop-opacity:1" />
        </linearGradient>
    </defs>
    <rect width="512" height="512" rx="128" fill="url(#grad1)"/>
    
    <path d="M368 112H144C117.5 112 96 133.5 96 160V368C96 394.5 117.5 416 144 416H368C394.5 416 416 394.5 416 368V160C416 133.5 394.5 112 368 112Z" fill="#F97316"/>
    <path d="M144 400H368C385.7 400 400 385.7 400 368V160C400 142.3 385.7 128 368 128H144C126.3 128 112 142.3 112 160V368C112 385.7 126.3 400 144 400Z" fill="white"/>
    <path d="M256 128V400" stroke="#F97316" stroke-width="24" stroke-linecap="round"/>
    <path d="M112 368C112 368 160 384 256 384C352 384 400 368 400 368" stroke="#F97316" stroke-width="24" stroke-linecap="round" fill="none"/>
</svg>